<?xml version="1.0" encoding="iso-8859-1"?>
<!-- Generator: Adobe Illustrator 19.0.0, SVG Export Plug-In . SVG Version: 6.00 Build 0)  -->
<svg version="1.1" id="Capa_1" xmlns="http://www.w3.org/2000/svg" xmlns:xlink="http://www.w3.org/1999/xlink" x="0px" y="0px"
	 viewBox="0 0 512 512" style="enable-background:new 0 0 512 512;" xml:space="preserve">
<g>
	<g>
		<path d="M478.753,109.714H33.247C14.914,109.714,0,124.629,0,142.961v312.519c0,18.332,14.914,33.247,33.247,33.247h445.506
			c18.332,0,33.247-14.914,33.247-33.247V142.961C512,124.629,497.086,109.714,478.753,109.714z M472.104,448.831H39.896V149.61
			h432.208V448.831z"/>
	</g>
</g>
<g>
	<g>
		<rect x="19.948" y="222.753" width="472.104" height="39.896"/>
	</g>
</g>
<g>
	<g>
		<path d="M319.169,23.273H199.481c-25.667,0-46.545,20.879-46.545,46.545v59.844h39.896V69.818c0-3.604,3.045-6.649,6.649-6.649
			h119.688c3.604,0,6.649,3.045,6.649,6.649v59.844h39.896V69.818C365.714,44.152,344.829,23.273,319.169,23.273z"/>
	</g>
</g>
<g>
</g>
<g>
</g>
<g>
</g>
<g>
</g>
<g>
</g>
<g>
</g>
<g>
</g>
<g>
</g>
<g>
</g>
<g>
</g>
<g>
</g>
<g>
</g>
<g>
</g>
<g>
</g>
<g>
</g>
</svg>
